<mxfile host="app.diagrams.net" modified="2024-01-31T02:19:07.749Z" agent="Mozilla/5.0 (Windows NT 10.0; Win64; x64) AppleWebKit/537.36 (KHTML, like Gecko) Chrome/121.0.0.0 Safari/537.36 Edg/121.0.0.0" etag="Do_jrWvCYgvZG0HLmKH1" version="23.0.2" type="github">
  <diagram id="C5RBs43oDa-KdzZeNtuy" name="Page-1">
    <mxGraphModel dx="1340" dy="751" grid="1" gridSize="10" guides="1" tooltips="1" connect="1" arrows="1" fold="1" page="1" pageScale="1" pageWidth="1654" pageHeight="2336" math="0" shadow="0">
      <root>
        <mxCell id="WIyWlLk6GJQsqaUBKTNV-0" />
        <mxCell id="WIyWlLk6GJQsqaUBKTNV-1" parent="WIyWlLk6GJQsqaUBKTNV-0" />
        <mxCell id="EsSN8f5Hce0QhLabwmTy-6" style="edgeStyle=orthogonalEdgeStyle;rounded=0;orthogonalLoop=1;jettySize=auto;html=1;exitX=0.5;exitY=1;exitDx=0;exitDy=0;" edge="1" parent="WIyWlLk6GJQsqaUBKTNV-1" source="WIyWlLk6GJQsqaUBKTNV-3" target="EsSN8f5Hce0QhLabwmTy-5">
          <mxGeometry relative="1" as="geometry" />
        </mxCell>
        <mxCell id="WIyWlLk6GJQsqaUBKTNV-3" value="查询车次&lt;br&gt;" style="rounded=1;whiteSpace=wrap;html=1;fontSize=12;glass=0;strokeWidth=1;shadow=0;" parent="WIyWlLk6GJQsqaUBKTNV-1" vertex="1">
          <mxGeometry x="170" y="50" width="130" height="40" as="geometry" />
        </mxCell>
        <mxCell id="EsSN8f5Hce0QhLabwmTy-13" style="edgeStyle=orthogonalEdgeStyle;rounded=0;orthogonalLoop=1;jettySize=auto;html=1;entryX=0.5;entryY=0;entryDx=0;entryDy=0;" edge="1" parent="WIyWlLk6GJQsqaUBKTNV-1" source="EsSN8f5Hce0QhLabwmTy-0" target="EsSN8f5Hce0QhLabwmTy-4">
          <mxGeometry relative="1" as="geometry" />
        </mxCell>
        <mxCell id="EsSN8f5Hce0QhLabwmTy-0" value="根据车次&lt;br&gt;查询时刻表定义与车次关联关系表" style="rounded=1;whiteSpace=wrap;html=1;" vertex="1" parent="WIyWlLk6GJQsqaUBKTNV-1">
          <mxGeometry x="160" y="190" width="150" height="60" as="geometry" />
        </mxCell>
        <mxCell id="EsSN8f5Hce0QhLabwmTy-31" style="edgeStyle=orthogonalEdgeStyle;rounded=0;orthogonalLoop=1;jettySize=auto;html=1;entryX=0.5;entryY=0;entryDx=0;entryDy=0;" edge="1" parent="WIyWlLk6GJQsqaUBKTNV-1" source="EsSN8f5Hce0QhLabwmTy-2" target="EsSN8f5Hce0QhLabwmTy-3">
          <mxGeometry relative="1" as="geometry" />
        </mxCell>
        <mxCell id="EsSN8f5Hce0QhLabwmTy-2" value="根据时刻表编号和线路编号查询时刻表数据定义表" style="rounded=1;whiteSpace=wrap;html=1;" vertex="1" parent="WIyWlLk6GJQsqaUBKTNV-1">
          <mxGeometry x="160" y="620" width="150" height="40" as="geometry" />
        </mxCell>
        <mxCell id="EsSN8f5Hce0QhLabwmTy-32" style="edgeStyle=orthogonalEdgeStyle;rounded=0;orthogonalLoop=1;jettySize=auto;html=1;entryX=0.5;entryY=0;entryDx=0;entryDy=0;" edge="1" parent="WIyWlLk6GJQsqaUBKTNV-1" source="EsSN8f5Hce0QhLabwmTy-3" target="EsSN8f5Hce0QhLabwmTy-27">
          <mxGeometry relative="1" as="geometry" />
        </mxCell>
        <mxCell id="EsSN8f5Hce0QhLabwmTy-3" value="循环数据" style="rounded=1;whiteSpace=wrap;html=1;" vertex="1" parent="WIyWlLk6GJQsqaUBKTNV-1">
          <mxGeometry x="160" y="706" width="150" height="40" as="geometry" />
        </mxCell>
        <mxCell id="EsSN8f5Hce0QhLabwmTy-14" value="" style="edgeStyle=orthogonalEdgeStyle;rounded=0;orthogonalLoop=1;jettySize=auto;html=1;" edge="1" parent="WIyWlLk6GJQsqaUBKTNV-1" source="EsSN8f5Hce0QhLabwmTy-4" target="EsSN8f5Hce0QhLabwmTy-8">
          <mxGeometry relative="1" as="geometry" />
        </mxCell>
        <mxCell id="EsSN8f5Hce0QhLabwmTy-4" value="根据时刻表编号和线路编号查询列车时刻表定义表" style="rounded=1;whiteSpace=wrap;html=1;" vertex="1" parent="WIyWlLk6GJQsqaUBKTNV-1">
          <mxGeometry x="160" y="287" width="150" height="50" as="geometry" />
        </mxCell>
        <mxCell id="EsSN8f5Hce0QhLabwmTy-7" style="edgeStyle=orthogonalEdgeStyle;rounded=0;orthogonalLoop=1;jettySize=auto;html=1;exitX=0.5;exitY=1;exitDx=0;exitDy=0;entryX=0.5;entryY=0;entryDx=0;entryDy=0;" edge="1" parent="WIyWlLk6GJQsqaUBKTNV-1" source="EsSN8f5Hce0QhLabwmTy-5" target="EsSN8f5Hce0QhLabwmTy-0">
          <mxGeometry relative="1" as="geometry" />
        </mxCell>
        <mxCell id="EsSN8f5Hce0QhLabwmTy-5" value="循环数据" style="rounded=1;whiteSpace=wrap;html=1;" vertex="1" parent="WIyWlLk6GJQsqaUBKTNV-1">
          <mxGeometry x="160" y="120" width="150" height="40" as="geometry" />
        </mxCell>
        <mxCell id="EsSN8f5Hce0QhLabwmTy-15" style="edgeStyle=orthogonalEdgeStyle;rounded=0;orthogonalLoop=1;jettySize=auto;html=1;entryX=0;entryY=0.5;entryDx=0;entryDy=0;" edge="1" parent="WIyWlLk6GJQsqaUBKTNV-1" source="EsSN8f5Hce0QhLabwmTy-8" target="EsSN8f5Hce0QhLabwmTy-9">
          <mxGeometry relative="1" as="geometry" />
        </mxCell>
        <mxCell id="EsSN8f5Hce0QhLabwmTy-18" style="edgeStyle=orthogonalEdgeStyle;rounded=0;orthogonalLoop=1;jettySize=auto;html=1;entryX=0.5;entryY=0;entryDx=0;entryDy=0;" edge="1" parent="WIyWlLk6GJQsqaUBKTNV-1" source="EsSN8f5Hce0QhLabwmTy-8" target="EsSN8f5Hce0QhLabwmTy-17">
          <mxGeometry relative="1" as="geometry" />
        </mxCell>
        <mxCell id="EsSN8f5Hce0QhLabwmTy-8" value="当前时间 &lt;br&gt;&amp;gt;=&lt;br&gt;结束时间" style="rhombus;whiteSpace=wrap;html=1;shadow=0;fontFamily=Helvetica;fontSize=12;align=center;strokeWidth=1;spacing=6;spacingTop=-4;" vertex="1" parent="WIyWlLk6GJQsqaUBKTNV-1">
          <mxGeometry x="152.5" y="368" width="165" height="80" as="geometry" />
        </mxCell>
        <mxCell id="EsSN8f5Hce0QhLabwmTy-24" style="edgeStyle=orthogonalEdgeStyle;rounded=0;orthogonalLoop=1;jettySize=auto;html=1;entryX=1;entryY=0.5;entryDx=0;entryDy=0;" edge="1" parent="WIyWlLk6GJQsqaUBKTNV-1" source="EsSN8f5Hce0QhLabwmTy-9" target="EsSN8f5Hce0QhLabwmTy-5">
          <mxGeometry relative="1" as="geometry">
            <Array as="points">
              <mxPoint x="610" y="408" />
              <mxPoint x="610" y="140" />
            </Array>
          </mxGeometry>
        </mxCell>
        <mxCell id="EsSN8f5Hce0QhLabwmTy-9" value="添加车仿真结果数据&lt;br style=&quot;border-color: var(--border-color);&quot;&gt;【状态：已结束；位置：终点站】" style="rounded=1;whiteSpace=wrap;html=1;" vertex="1" parent="WIyWlLk6GJQsqaUBKTNV-1">
          <mxGeometry x="400" y="379" width="190" height="58" as="geometry" />
        </mxCell>
        <mxCell id="EsSN8f5Hce0QhLabwmTy-16" value="是" style="text;html=1;align=center;verticalAlign=middle;resizable=0;points=[];autosize=1;strokeColor=none;fillColor=none;" vertex="1" parent="WIyWlLk6GJQsqaUBKTNV-1">
          <mxGeometry x="340" y="380" width="40" height="30" as="geometry" />
        </mxCell>
        <mxCell id="EsSN8f5Hce0QhLabwmTy-21" style="edgeStyle=orthogonalEdgeStyle;rounded=0;orthogonalLoop=1;jettySize=auto;html=1;entryX=0;entryY=0.5;entryDx=0;entryDy=0;" edge="1" parent="WIyWlLk6GJQsqaUBKTNV-1" source="EsSN8f5Hce0QhLabwmTy-17" target="EsSN8f5Hce0QhLabwmTy-20">
          <mxGeometry relative="1" as="geometry" />
        </mxCell>
        <mxCell id="EsSN8f5Hce0QhLabwmTy-30" style="edgeStyle=orthogonalEdgeStyle;rounded=0;orthogonalLoop=1;jettySize=auto;html=1;entryX=0.5;entryY=0;entryDx=0;entryDy=0;" edge="1" parent="WIyWlLk6GJQsqaUBKTNV-1" source="EsSN8f5Hce0QhLabwmTy-17" target="EsSN8f5Hce0QhLabwmTy-2">
          <mxGeometry relative="1" as="geometry" />
        </mxCell>
        <mxCell id="EsSN8f5Hce0QhLabwmTy-17" value="当前时间 &lt;br&gt;&amp;lt;&lt;br&gt;开始时间&amp;nbsp;" style="rhombus;whiteSpace=wrap;html=1;shadow=0;fontFamily=Helvetica;fontSize=12;align=center;strokeWidth=1;spacing=6;spacingTop=-4;" vertex="1" parent="WIyWlLk6GJQsqaUBKTNV-1">
          <mxGeometry x="152.5" y="490" width="165" height="80" as="geometry" />
        </mxCell>
        <mxCell id="EsSN8f5Hce0QhLabwmTy-19" value="否" style="text;html=1;align=center;verticalAlign=middle;resizable=0;points=[];autosize=1;strokeColor=none;fillColor=none;" vertex="1" parent="WIyWlLk6GJQsqaUBKTNV-1">
          <mxGeometry x="228" y="456" width="40" height="30" as="geometry" />
        </mxCell>
        <mxCell id="EsSN8f5Hce0QhLabwmTy-23" style="edgeStyle=orthogonalEdgeStyle;rounded=0;orthogonalLoop=1;jettySize=auto;html=1;entryX=1;entryY=0.5;entryDx=0;entryDy=0;" edge="1" parent="WIyWlLk6GJQsqaUBKTNV-1" source="EsSN8f5Hce0QhLabwmTy-20" target="EsSN8f5Hce0QhLabwmTy-5">
          <mxGeometry relative="1" as="geometry">
            <mxPoint x="320" y="130" as="targetPoint" />
            <Array as="points">
              <mxPoint x="630" y="530" />
              <mxPoint x="630" y="140" />
            </Array>
          </mxGeometry>
        </mxCell>
        <mxCell id="EsSN8f5Hce0QhLabwmTy-20" value="添加车仿真结果数据&lt;br style=&quot;border-color: var(--border-color);&quot;&gt;【状态：未开始；位置：起点站】" style="rounded=1;whiteSpace=wrap;html=1;" vertex="1" parent="WIyWlLk6GJQsqaUBKTNV-1">
          <mxGeometry x="400" y="500" width="190" height="60" as="geometry" />
        </mxCell>
        <mxCell id="EsSN8f5Hce0QhLabwmTy-22" value="是" style="text;html=1;align=center;verticalAlign=middle;resizable=0;points=[];autosize=1;strokeColor=none;fillColor=none;" vertex="1" parent="WIyWlLk6GJQsqaUBKTNV-1">
          <mxGeometry x="341" y="498" width="40" height="30" as="geometry" />
        </mxCell>
        <mxCell id="EsSN8f5Hce0QhLabwmTy-26" value="否" style="text;html=1;align=center;verticalAlign=middle;resizable=0;points=[];autosize=1;strokeColor=none;fillColor=none;" vertex="1" parent="WIyWlLk6GJQsqaUBKTNV-1">
          <mxGeometry x="229" y="577.5" width="40" height="30" as="geometry" />
        </mxCell>
        <mxCell id="EsSN8f5Hce0QhLabwmTy-33" style="edgeStyle=orthogonalEdgeStyle;rounded=0;orthogonalLoop=1;jettySize=auto;html=1;" edge="1" parent="WIyWlLk6GJQsqaUBKTNV-1">
          <mxGeometry relative="1" as="geometry">
            <mxPoint x="315.4375" y="823" as="sourcePoint" />
            <mxPoint x="310" y="730" as="targetPoint" />
            <Array as="points">
              <mxPoint x="360" y="823" />
              <mxPoint x="360" y="729" />
              <mxPoint x="310" y="729" />
            </Array>
          </mxGeometry>
        </mxCell>
        <mxCell id="EsSN8f5Hce0QhLabwmTy-36" style="edgeStyle=orthogonalEdgeStyle;rounded=0;orthogonalLoop=1;jettySize=auto;html=1;entryX=0.5;entryY=0;entryDx=0;entryDy=0;" edge="1" parent="WIyWlLk6GJQsqaUBKTNV-1" source="EsSN8f5Hce0QhLabwmTy-27" target="EsSN8f5Hce0QhLabwmTy-35">
          <mxGeometry relative="1" as="geometry" />
        </mxCell>
        <mxCell id="EsSN8f5Hce0QhLabwmTy-27" value="当前时间 &lt;br&gt;&amp;gt;&lt;br&gt;出站时间" style="rhombus;whiteSpace=wrap;html=1;shadow=0;fontFamily=Helvetica;fontSize=12;align=center;strokeWidth=1;spacing=6;spacingTop=-4;" vertex="1" parent="WIyWlLk6GJQsqaUBKTNV-1">
          <mxGeometry x="152.5" y="781" width="165" height="80" as="geometry" />
        </mxCell>
        <mxCell id="EsSN8f5Hce0QhLabwmTy-34" value="是" style="text;html=1;align=center;verticalAlign=middle;resizable=0;points=[];autosize=1;strokeColor=none;fillColor=none;" vertex="1" parent="WIyWlLk6GJQsqaUBKTNV-1">
          <mxGeometry x="315" y="794" width="40" height="30" as="geometry" />
        </mxCell>
        <mxCell id="EsSN8f5Hce0QhLabwmTy-41" style="edgeStyle=orthogonalEdgeStyle;rounded=0;orthogonalLoop=1;jettySize=auto;html=1;entryX=0;entryY=0.5;entryDx=0;entryDy=0;" edge="1" parent="WIyWlLk6GJQsqaUBKTNV-1" source="EsSN8f5Hce0QhLabwmTy-35" target="EsSN8f5Hce0QhLabwmTy-38">
          <mxGeometry relative="1" as="geometry" />
        </mxCell>
        <mxCell id="EsSN8f5Hce0QhLabwmTy-44" style="edgeStyle=orthogonalEdgeStyle;rounded=0;orthogonalLoop=1;jettySize=auto;html=1;entryX=0.5;entryY=0;entryDx=0;entryDy=0;" edge="1" parent="WIyWlLk6GJQsqaUBKTNV-1" source="EsSN8f5Hce0QhLabwmTy-35" target="EsSN8f5Hce0QhLabwmTy-39">
          <mxGeometry relative="1" as="geometry" />
        </mxCell>
        <mxCell id="EsSN8f5Hce0QhLabwmTy-35" value="当前时间 &lt;br&gt;=&lt;br&gt;进站时间&amp;nbsp; / 出站时间" style="rhombus;whiteSpace=wrap;html=1;shadow=0;fontFamily=Helvetica;fontSize=12;align=center;strokeWidth=1;spacing=6;spacingTop=-4;" vertex="1" parent="WIyWlLk6GJQsqaUBKTNV-1">
          <mxGeometry x="152.5" y="896" width="165" height="80" as="geometry" />
        </mxCell>
        <mxCell id="EsSN8f5Hce0QhLabwmTy-37" value="否" style="text;html=1;align=center;verticalAlign=middle;resizable=0;points=[];autosize=1;strokeColor=none;fillColor=none;" vertex="1" parent="WIyWlLk6GJQsqaUBKTNV-1">
          <mxGeometry x="226" y="860" width="40" height="30" as="geometry" />
        </mxCell>
        <mxCell id="EsSN8f5Hce0QhLabwmTy-49" style="edgeStyle=orthogonalEdgeStyle;rounded=0;orthogonalLoop=1;jettySize=auto;html=1;entryX=1;entryY=0.5;entryDx=0;entryDy=0;" edge="1" parent="WIyWlLk6GJQsqaUBKTNV-1" source="EsSN8f5Hce0QhLabwmTy-38" target="EsSN8f5Hce0QhLabwmTy-5">
          <mxGeometry relative="1" as="geometry">
            <mxPoint x="610" y="310" as="targetPoint" />
            <Array as="points">
              <mxPoint x="650" y="936" />
              <mxPoint x="650" y="140" />
            </Array>
          </mxGeometry>
        </mxCell>
        <mxCell id="EsSN8f5Hce0QhLabwmTy-38" value="添加车仿真结果数据&lt;br style=&quot;border-color: var(--border-color);&quot;&gt;【状态：进站中 / 出站中；位置：当前车站编号】" style="rounded=1;whiteSpace=wrap;html=1;" vertex="1" parent="WIyWlLk6GJQsqaUBKTNV-1">
          <mxGeometry x="400" y="906" width="190" height="60" as="geometry" />
        </mxCell>
        <mxCell id="EsSN8f5Hce0QhLabwmTy-47" style="edgeStyle=orthogonalEdgeStyle;rounded=0;orthogonalLoop=1;jettySize=auto;html=1;entryX=0;entryY=0.5;entryDx=0;entryDy=0;" edge="1" parent="WIyWlLk6GJQsqaUBKTNV-1" source="EsSN8f5Hce0QhLabwmTy-39" target="EsSN8f5Hce0QhLabwmTy-43">
          <mxGeometry relative="1" as="geometry" />
        </mxCell>
        <mxCell id="EsSN8f5Hce0QhLabwmTy-53" style="edgeStyle=orthogonalEdgeStyle;rounded=0;orthogonalLoop=1;jettySize=auto;html=1;entryX=0.5;entryY=0;entryDx=0;entryDy=0;" edge="1" parent="WIyWlLk6GJQsqaUBKTNV-1" source="EsSN8f5Hce0QhLabwmTy-39" target="EsSN8f5Hce0QhLabwmTy-52">
          <mxGeometry relative="1" as="geometry" />
        </mxCell>
        <mxCell id="EsSN8f5Hce0QhLabwmTy-39" value="当前时间 &lt;br&gt;&amp;gt;&lt;br&gt;进站时间" style="rhombus;whiteSpace=wrap;html=1;shadow=0;fontFamily=Helvetica;fontSize=12;align=center;strokeWidth=1;spacing=6;spacingTop=-4;" vertex="1" parent="WIyWlLk6GJQsqaUBKTNV-1">
          <mxGeometry x="152.5" y="1017" width="165" height="80" as="geometry" />
        </mxCell>
        <mxCell id="EsSN8f5Hce0QhLabwmTy-42" value="是" style="text;html=1;align=center;verticalAlign=middle;resizable=0;points=[];autosize=1;strokeColor=none;fillColor=none;" vertex="1" parent="WIyWlLk6GJQsqaUBKTNV-1">
          <mxGeometry x="341" y="908" width="40" height="30" as="geometry" />
        </mxCell>
        <mxCell id="EsSN8f5Hce0QhLabwmTy-51" style="edgeStyle=orthogonalEdgeStyle;rounded=0;orthogonalLoop=1;jettySize=auto;html=1;entryX=1;entryY=0.5;entryDx=0;entryDy=0;" edge="1" parent="WIyWlLk6GJQsqaUBKTNV-1" source="EsSN8f5Hce0QhLabwmTy-43" target="EsSN8f5Hce0QhLabwmTy-5">
          <mxGeometry relative="1" as="geometry">
            <mxPoint x="700" y="620" as="targetPoint" />
            <Array as="points">
              <mxPoint x="670" y="1057" />
              <mxPoint x="670" y="140" />
            </Array>
          </mxGeometry>
        </mxCell>
        <mxCell id="EsSN8f5Hce0QhLabwmTy-43" value="添加车仿真结果数据&lt;br style=&quot;border-color: var(--border-color);&quot;&gt;【状态：运行中；位置：区间（前车站编号 -&amp;gt; 当前车站编号）】" style="rounded=1;whiteSpace=wrap;html=1;" vertex="1" parent="WIyWlLk6GJQsqaUBKTNV-1">
          <mxGeometry x="400" y="1027" width="190" height="60" as="geometry" />
        </mxCell>
        <mxCell id="EsSN8f5Hce0QhLabwmTy-45" value="否" style="text;html=1;align=center;verticalAlign=middle;resizable=0;points=[];autosize=1;strokeColor=none;fillColor=none;" vertex="1" parent="WIyWlLk6GJQsqaUBKTNV-1">
          <mxGeometry x="226" y="983" width="40" height="30" as="geometry" />
        </mxCell>
        <mxCell id="EsSN8f5Hce0QhLabwmTy-48" value="是" style="text;html=1;align=center;verticalAlign=middle;resizable=0;points=[];autosize=1;strokeColor=none;fillColor=none;" vertex="1" parent="WIyWlLk6GJQsqaUBKTNV-1">
          <mxGeometry x="338" y="1028" width="40" height="30" as="geometry" />
        </mxCell>
        <mxCell id="EsSN8f5Hce0QhLabwmTy-52" value="error&lt;br&gt;数据错误" style="rounded=1;whiteSpace=wrap;html=1;" vertex="1" parent="WIyWlLk6GJQsqaUBKTNV-1">
          <mxGeometry x="175" y="1138" width="120" height="60" as="geometry" />
        </mxCell>
        <mxCell id="EsSN8f5Hce0QhLabwmTy-54" value="否" style="text;html=1;align=center;verticalAlign=middle;resizable=0;points=[];autosize=1;strokeColor=none;fillColor=none;" vertex="1" parent="WIyWlLk6GJQsqaUBKTNV-1">
          <mxGeometry x="230" y="1101" width="40" height="30" as="geometry" />
        </mxCell>
        <mxCell id="EsSN8f5Hce0QhLabwmTy-55" value="退出当前循环" style="text;html=1;align=center;verticalAlign=middle;resizable=0;points=[];autosize=1;strokeColor=none;fillColor=none;" vertex="1" parent="WIyWlLk6GJQsqaUBKTNV-1">
          <mxGeometry x="310" y="936" width="100" height="30" as="geometry" />
        </mxCell>
        <mxCell id="EsSN8f5Hce0QhLabwmTy-56" value="退出当前循环" style="text;html=1;align=center;verticalAlign=middle;resizable=0;points=[];autosize=1;strokeColor=none;fillColor=none;" vertex="1" parent="WIyWlLk6GJQsqaUBKTNV-1">
          <mxGeometry x="311" y="1058" width="100" height="30" as="geometry" />
        </mxCell>
      </root>
    </mxGraphModel>
  </diagram>
</mxfile>
